<svg width="116" height="114" viewBox="0 0 116 114" fill="none" xmlns="http://www.w3.org/2000/svg">
<path d="M57.5449 27.7202C41.219 27.7202 28.0505 40.7456 28.0505 56.894C28.0505 73.0425 41.219 86.0679 57.5449 86.0679C73.8708 86.0679 87.0393 73.0425 87.0393 56.894C87.0393 40.7456 73.8708 27.7202 57.5449 27.7202ZM57.5449 75.8608C46.9947 75.8608 38.3697 67.355 38.3697 56.894C38.3697 46.4331 46.969 37.9272 57.5449 37.9272C68.1208 37.9272 76.7201 46.4331 76.7201 56.894C76.7201 67.355 68.0951 75.8608 57.5449 75.8608V75.8608ZM95.1253 26.5269C95.1253 30.3101 92.0449 33.3315 88.2458 33.3315C84.421 33.3315 81.3663 30.2847 81.3663 26.5269C81.3663 22.769 84.4467 19.7222 88.2458 19.7222C92.0449 19.7222 95.1253 22.769 95.1253 26.5269ZM114.66 33.4331C114.223 24.3179 112.119 16.2437 105.367 9.59131C98.642 2.93896 90.4791 0.856934 81.2637 0.399902C71.7659 -0.133301 43.2983 -0.133301 33.8005 0.399902C24.6108 0.831543 16.4478 2.91357 9.69671 9.56592C2.94559 16.2183 0.86635 24.2925 0.404297 33.4077C-0.134766 42.8022 -0.134766 70.9604 0.404297 80.355C0.840681 89.4702 2.94559 97.5444 9.69671 104.197C16.4478 110.849 24.5851 112.931 33.8005 113.388C43.2983 113.921 71.7659 113.921 81.2637 113.388C90.4791 112.957 98.642 110.875 105.367 104.197C112.093 97.5444 114.198 89.4702 114.66 80.355C115.199 70.9604 115.199 42.8276 114.66 33.4331V33.4331ZM102.39 90.4351C100.388 95.4116 96.5114 99.2456 91.4545 101.251C83.882 104.222 65.9132 103.537 57.5449 103.537C49.1766 103.537 31.1822 104.197 23.6353 101.251C18.6041 99.271 14.728 95.437 12.7001 90.4351C9.69671 82.9448 10.3898 65.1714 10.3898 56.894C10.3898 48.6167 9.72238 30.8179 12.7001 23.353C14.7023 18.3765 18.5784 14.5425 23.6353 12.5366C31.2079 9.56592 49.1766 10.2515 57.5449 10.2515C65.9132 10.2515 83.9076 9.59131 91.4545 12.5366C96.4858 14.5171 100.362 18.3511 102.39 23.353C105.393 30.8433 104.7 48.6167 104.7 56.894C104.7 65.1714 105.393 82.9702 102.39 90.4351Z" fill="black"/>
</svg>
