<svg width="973" height="121" viewBox="0 0 973 121" fill="none" xmlns="http://www.w3.org/2000/svg">
<ellipse cx="65.4484" cy="61.9756" rx="65.4484" ry="59.0244" fill="white"/>
<path d="M46.3774 28.7383H93.3989V30.5449H91.397C83.0636 30.5449 78.897 34.679 78.897 42.9473V76.0527C78.897 82.4004 77.0252 87.3971 73.2817 91.043C70.7752 93.4518 67.6991 95.291 64.0532 96.5605C60.4074 97.8301 56.4849 98.4648 52.2856 98.4648C48.3468 98.4648 44.7987 97.9115 41.6411 96.8047C38.4836 95.6654 35.8631 94.054 33.7798 91.9707C32.4777 90.571 31.436 89.0573 30.6548 87.4297C29.8735 85.7695 29.4829 84.1745 29.4829 82.6445C29.4829 80.138 30.3618 77.9896 32.1196 76.1992C33.91 74.3763 36.0584 73.4648 38.5649 73.4648C41.0715 73.4648 43.106 74.2624 44.6685 75.8574C46.231 77.4525 47.0122 79.487 47.0122 81.9609C47.0122 85.8997 44.8312 88.6341 40.4692 90.1641C39.1346 90.6198 38.4673 91.1081 38.4673 91.6289C38.4673 92.4753 39.3787 93.4518 41.2017 94.5586C43.4803 95.9583 46.4751 96.6582 50.186 96.6582C53.2134 96.6582 55.8013 96.1211 57.9497 95.0469C60.0981 93.9727 61.742 92.4264 62.8813 90.4082C64.0207 88.3574 64.5903 85.8997 64.5903 83.0352V42.9473C64.5903 34.679 60.4237 30.5449 52.0903 30.5449H46.3774V28.7383Z" fill="#C78989" fill-opacity="0.86"/>
<path d="M164.638 44.9812C168.721 44.9812 172.45 45.6375 175.825 46.95C179.221 48.2416 182.169 50.1375 184.669 52.6375C186.773 54.7625 188.398 57.1375 189.544 59.7625C190.69 62.3666 191.263 65.0333 191.263 67.7625C191.263 71.8666 190.096 75.6479 187.763 79.1062C185.45 82.5645 182.294 85.3041 178.294 87.325C174.315 89.3458 169.95 90.3562 165.2 90.3562C161.575 90.3562 158.159 89.7833 154.95 88.6375C151.763 87.4916 148.95 85.877 146.513 83.7937C144.075 81.6895 142.169 79.2416 140.794 76.45C139.44 73.6583 138.763 70.7416 138.763 67.7C138.763 63.6583 139.94 59.8875 142.294 56.3875C144.648 52.8875 147.804 50.1166 151.763 48.075C155.721 46.0125 160.013 44.9812 164.638 44.9812ZM165.45 46.1062C163.554 46.1062 161.763 46.4395 160.075 47.1062C158.409 47.752 157.002 48.6791 155.856 49.8875C154.606 51.2 153.534 52.7625 152.638 54.575C151.763 56.3666 151.096 58.377 150.638 60.6062C150.2 62.8145 149.981 65.2 149.981 67.7625C149.981 70.9708 150.336 73.8979 151.044 76.5437C151.752 79.1687 152.773 81.4395 154.106 83.3562C155.44 85.252 157.034 86.7 158.888 87.7C160.742 88.7 162.804 89.2 165.075 89.2C168.159 89.2 170.836 88.325 173.106 86.575C175.398 84.8041 177.148 82.2833 178.356 79.0125C179.586 75.7416 180.2 71.8562 180.2 67.3562C180.2 64.4395 179.867 61.7104 179.2 59.1687C178.534 56.627 177.575 54.4187 176.325 52.5437C175.075 50.6479 173.565 49.1479 171.794 48.0437C170.919 47.4604 169.909 46.9916 168.763 46.6375C167.617 46.2833 166.513 46.1062 165.45 46.1062ZM198.106 45.8562H215.638L245.981 77.2937V58.4812C245.981 56.1895 245.586 54.1895 244.794 52.4812C244.023 50.752 242.898 49.4395 241.419 48.5437C240.627 48.0437 239.825 47.6895 239.013 47.4812C238.221 47.2729 237.106 47.1166 235.669 47.0125V45.8562H257.294V47.0125H256.856C253.711 47.0125 251.315 48.0125 249.669 50.0125C248.023 52.0125 247.2 54.9187 247.2 58.7312V89.95H246.169L208.481 51.2312V77.1687C208.481 79.6895 208.784 81.7104 209.388 83.2312C209.992 84.7312 210.971 85.9083 212.325 86.7625C213.429 87.4291 214.773 87.8562 216.356 88.0437C217.231 88.1895 218.481 88.2937 220.106 88.3562V89.5125H197.325V88.3562C199.659 88.2312 201.554 87.825 203.013 87.1375C204.492 86.4291 205.575 85.3875 206.263 84.0125C206.971 82.6375 207.325 80.9291 207.325 78.8875V54.2C207.325 52.6791 206.981 51.3875 206.294 50.325C205.627 49.2625 204.648 48.45 203.356 47.8875C202.065 47.3041 200.502 47.0125 198.669 47.0125H198.106V45.8562ZM260.294 45.8562H306.731V62.7625H305.794C304.94 59.8041 304.169 57.5958 303.481 56.1375C302.815 54.6583 301.94 53.2625 300.856 51.95C299.544 50.3875 298.117 49.2729 296.575 48.6062C294.013 47.5437 290.898 47.0125 287.231 47.0125H278.638V67.7625H280.95C284.388 67.7625 287.117 66.2833 289.138 63.325C290.179 61.8041 290.95 59.9916 291.45 57.8875C291.7 56.9916 291.929 55.6687 292.138 53.9187H293.231V82.5437H292.138C291.888 81.002 291.586 79.5541 291.231 78.2C290.898 76.825 290.513 75.7104 290.075 74.8562C289.659 74.002 289.117 73.1479 288.45 72.2937C286.575 69.9812 283.909 68.825 280.45 68.825H278.638V88.3562H285.825C287.95 88.3562 289.856 88.2104 291.544 87.9187C293.252 87.6062 294.784 87.1375 296.138 86.5125C297.492 85.8666 298.763 85.0333 299.95 84.0125C301.992 82.2833 303.575 80.127 304.7 77.5437C305.346 76.0645 306.023 74.0645 306.731 71.5437H307.888V89.5125H260.356L260.294 88.3562H261.481C266.773 88.3562 269.419 85.6895 269.419 80.3562V54.95C269.419 52.2416 268.773 50.2416 267.481 48.95C266.19 47.6583 264.19 47.0125 261.481 47.0125H260.294V45.8562ZM354.169 46.7H355.263V61.6687H354.169C352.856 58.0645 351.367 55.252 349.7 53.2312C348.492 51.8145 346.971 50.575 345.138 49.5125C343.325 48.4291 341.284 47.5854 339.013 46.9812C336.763 46.3562 334.481 46.0437 332.169 46.0437C330.44 46.0437 328.898 46.2833 327.544 46.7625C326.19 47.2416 325.044 47.95 324.106 48.8875C323.44 49.5541 322.909 50.3041 322.513 51.1375C322.117 51.9708 321.919 52.7729 321.919 53.5437C321.919 55.002 322.481 56.2625 323.606 57.325C324.127 57.8458 324.867 58.3458 325.825 58.825C326.804 59.3041 328.054 59.7729 329.575 60.2312C331.117 60.6895 333.263 61.252 336.013 61.9187C336.763 62.1479 337.273 62.2833 337.544 62.325L339.075 62.7L341.513 63.325C345.638 64.3875 348.648 65.325 350.544 66.1375C352.44 66.95 354.054 68.0229 355.388 69.3562C356.429 70.3354 357.231 71.4812 357.794 72.7937C358.377 74.1062 358.669 75.5229 358.669 77.0437C358.669 78.5437 358.346 80.0541 357.7 81.575C357.054 83.075 356.138 84.3979 354.95 85.5437C353.409 87.127 351.502 88.3145 349.231 89.1062C346.981 89.8979 344.409 90.2937 341.513 90.2937C339.492 90.2937 337.586 90.0854 335.794 89.6687C334.023 89.2729 331.856 88.5333 329.294 87.45C327.627 86.7833 326.356 86.3354 325.481 86.1062C324.606 85.8562 323.784 85.7312 323.013 85.7312C321.534 85.7312 320.273 86.127 319.231 86.9187C318.211 87.6895 317.534 88.7937 317.2 90.2312H316.106V70.0437H317.2C317.638 73.627 319.086 76.877 321.544 79.7937C323.023 81.502 324.909 83.0958 327.2 84.575C329.513 86.0333 331.929 87.1687 334.45 87.9812C336.971 88.7937 339.367 89.2 341.638 89.2C343.659 89.2 345.502 88.8666 347.169 88.2C348.856 87.5333 350.169 86.6062 351.106 85.4187C352.044 84.2312 352.513 82.8875 352.513 81.3875C352.513 79.8041 351.877 78.377 350.606 77.1062C350.023 76.5437 349.263 76.0229 348.325 75.5437C347.409 75.0645 346.211 74.575 344.731 74.075C343.273 73.575 341.263 72.9812 338.7 72.2937L335.575 71.45C330.7 70.1375 327.325 69.1166 325.45 68.3875C323.346 67.6166 321.69 66.8458 320.481 66.075C319.294 65.3041 318.263 64.325 317.388 63.1375C316.096 61.4708 315.45 59.6375 315.45 57.6375C315.45 55.2208 316.169 53.0541 317.606 51.1375C319.044 49.2 321.054 47.6895 323.638 46.6062C326.221 45.5229 329.086 44.9812 332.231 44.9812C336.981 44.9812 341.909 46.3041 347.013 48.95C348.804 49.8458 350.023 50.2937 350.669 50.2937C352.294 50.2937 353.461 49.0958 354.169 46.7Z" fill="white"/>
<path d="M404.128 23.3438V110.719H400.237V23.3438H404.128Z" fill="#FEFCFF"/>
<path d="M420.404 45.8562H437.935L468.279 77.2937V58.4812C468.279 56.1895 467.883 54.1895 467.091 52.4812C466.32 50.752 465.195 49.4395 463.716 48.5437C462.925 48.0437 462.123 47.6895 461.31 47.4812C460.518 47.2729 459.404 47.1166 457.966 47.0125V45.8562H479.591V47.0125H479.154C476.008 47.0125 473.612 48.0125 471.966 50.0125C470.32 52.0125 469.498 54.9187 469.498 58.7312V89.95H468.466L430.779 51.2312V77.1687C430.779 79.6895 431.081 81.7104 431.685 83.2312C432.289 84.7312 433.268 85.9083 434.623 86.7625C435.727 87.4291 437.07 87.8562 438.654 88.0437C439.529 88.1895 440.779 88.2937 442.404 88.3562V89.5125H419.623V88.3562C421.956 88.2312 423.852 87.825 425.31 87.1375C426.789 86.4291 427.873 85.3875 428.56 84.0125C429.268 82.6375 429.623 80.9291 429.623 78.8875V54.2C429.623 52.6791 429.279 51.3875 428.591 50.325C427.925 49.2625 426.945 48.45 425.654 47.8875C424.362 47.3041 422.8 47.0125 420.966 47.0125H420.404V45.8562ZM484.123 88.2937H485.341C488.029 88.2937 490.018 87.6479 491.31 86.3562C492.623 85.0437 493.279 83.0437 493.279 80.3562C493.445 79.2312 493.57 78.2416 493.654 77.3875C493.758 76.5125 493.82 75.5229 493.841 74.4187C493.862 73.2937 493.862 71.8875 493.841 70.2C493.758 63.075 493.55 57.7104 493.216 54.1062C493.091 52.6479 492.852 51.5125 492.498 50.7C492.164 49.8875 491.654 49.2104 490.966 48.6687C489.716 47.5645 487.841 47.0125 485.341 47.0125H484.123V45.8562H511.623V47.0125H510.404C507.716 47.0125 505.727 47.6583 504.435 48.95C503.143 50.2416 502.498 52.2416 502.498 54.95V80.3562C502.498 83.0437 503.143 85.0437 504.435 86.3562C505.748 87.6479 507.737 88.2937 510.404 88.2937H511.623V89.5125H484.123V88.2937ZM517.091 45.8562H534.623L564.966 77.2937V58.4812C564.966 56.1895 564.57 54.1895 563.779 52.4812C563.008 50.752 561.883 49.4395 560.404 48.5437C559.612 48.0437 558.81 47.6895 557.998 47.4812C557.206 47.2729 556.091 47.1166 554.654 47.0125V45.8562H576.279V47.0125H575.841C572.695 47.0125 570.3 48.0125 568.654 50.0125C567.008 52.0125 566.185 54.9187 566.185 58.7312V89.95H565.154L527.466 51.2312V77.1687C527.466 79.6895 527.768 81.7104 528.373 83.2312C528.977 84.7312 529.956 85.9083 531.31 86.7625C532.414 87.4291 533.758 87.8562 535.341 88.0437C536.216 88.1895 537.466 88.2937 539.091 88.3562V89.5125H516.31V88.3562C518.643 88.2312 520.539 87.825 521.998 87.1375C523.477 86.4291 524.56 85.3875 525.248 84.0125C525.956 82.6375 526.31 80.9291 526.31 78.8875V54.2C526.31 52.6791 525.966 51.3875 525.279 50.325C524.612 49.2625 523.633 48.45 522.341 47.8875C521.05 47.3041 519.487 47.0125 517.654 47.0125H517.091V45.8562ZM601.154 55.2L592.591 74.6687H609.935L601.154 55.2ZM604.466 44.9812H605.623L623.185 83.1687C623.748 84.3562 624.373 85.3354 625.06 86.1062C625.768 86.877 626.56 87.4395 627.435 87.7937C628.31 88.127 629.341 88.2937 630.529 88.2937H631.685V89.5125H606.341V88.2937H609.654C611.3 88.2937 612.498 88.075 613.248 87.6375C614.018 87.1791 614.404 86.4812 614.404 85.5437C614.404 84.9604 614.248 84.252 613.935 83.4187C613.643 82.5854 612.987 81.075 611.966 78.8875C611.904 78.7625 611.81 78.5541 611.685 78.2625C611.56 77.9708 611.425 77.6895 611.279 77.4187L610.56 75.825H592.06L590.654 79.075C590.195 80.1791 589.966 81.2937 589.966 82.4187C589.966 83.377 590.227 84.325 590.748 85.2625C591.289 86.2 591.987 86.9083 592.841 87.3875C593.404 87.7208 593.904 87.95 594.341 88.075C594.8 88.1791 595.445 88.252 596.279 88.2937V89.5125H578.498V88.2937C579.789 88.1479 580.81 87.9187 581.56 87.6062C582.331 87.2937 583.185 86.7729 584.123 86.0437C586.331 84.3354 588.487 81.1166 590.591 76.3875L604.466 44.9812ZM667.466 45.8562H697.56V47.0125H696.279C690.945 47.0125 688.279 49.6583 688.279 54.95V76.1375C688.279 80.2 687.081 83.3979 684.685 85.7312C683.081 87.2729 681.112 88.45 678.779 89.2625C676.445 90.075 673.935 90.4812 671.248 90.4812C668.727 90.4812 666.456 90.127 664.435 89.4187C662.414 88.6895 660.737 87.6583 659.404 86.325C658.57 85.4291 657.904 84.4604 657.404 83.4187C656.904 82.3562 656.654 81.3354 656.654 80.3562C656.654 78.752 657.216 77.377 658.341 76.2312C659.487 75.0645 660.862 74.4812 662.466 74.4812C664.07 74.4812 665.373 74.9916 666.373 76.0125C667.373 77.0333 667.873 78.3354 667.873 79.9187C667.873 82.4395 666.477 84.1895 663.685 85.1687C662.831 85.4604 662.404 85.7729 662.404 86.1062C662.404 86.6479 662.987 87.2729 664.154 87.9812C665.612 88.877 667.529 89.325 669.904 89.325C671.841 89.325 673.498 88.9812 674.873 88.2937C676.248 87.6062 677.3 86.6166 678.029 85.325C678.758 84.0125 679.123 82.4395 679.123 80.6062V54.95C679.123 49.6583 676.456 47.0125 671.123 47.0125H667.466V45.8562ZM729.623 44.9812C733.706 44.9812 737.435 45.6375 740.81 46.95C744.206 48.2416 747.154 50.1375 749.654 52.6375C751.758 54.7625 753.383 57.1375 754.529 59.7625C755.675 62.3666 756.248 65.0333 756.248 67.7625C756.248 71.8666 755.081 75.6479 752.748 79.1062C750.435 82.5645 747.279 85.3041 743.279 87.325C739.3 89.3458 734.935 90.3562 730.185 90.3562C726.56 90.3562 723.143 89.7833 719.935 88.6375C716.748 87.4916 713.935 85.877 711.498 83.7937C709.06 81.6895 707.154 79.2416 705.779 76.45C704.425 73.6583 703.748 70.7416 703.748 67.7C703.748 63.6583 704.925 59.8875 707.279 56.3875C709.633 52.8875 712.789 50.1166 716.748 48.075C720.706 46.0125 724.998 44.9812 729.623 44.9812ZM730.435 46.1062C728.539 46.1062 726.748 46.4395 725.06 47.1062C723.393 47.752 721.987 48.6791 720.841 49.8875C719.591 51.2 718.518 52.7625 717.623 54.575C716.748 56.3666 716.081 58.377 715.623 60.6062C715.185 62.8145 714.966 65.2 714.966 67.7625C714.966 70.9708 715.32 73.8979 716.029 76.5437C716.737 79.1687 717.758 81.4395 719.091 83.3562C720.425 85.252 722.018 86.7 723.873 87.7C725.727 88.7 727.789 89.2 730.06 89.2C733.143 89.2 735.82 88.325 738.091 86.575C740.383 84.8041 742.133 82.2833 743.341 79.0125C744.57 75.7416 745.185 71.8562 745.185 67.3562C745.185 64.4395 744.852 61.7104 744.185 59.1687C743.518 56.627 742.56 54.4187 741.31 52.5437C740.06 50.6479 738.55 49.1479 736.779 48.0437C735.904 47.4604 734.893 46.9916 733.748 46.6375C732.602 46.2833 731.498 46.1062 730.435 46.1062ZM763.091 45.8562H780.623L810.966 77.2937V58.4812C810.966 56.1895 810.57 54.1895 809.779 52.4812C809.008 50.752 807.883 49.4395 806.404 48.5437C805.612 48.0437 804.81 47.6895 803.998 47.4812C803.206 47.2729 802.091 47.1166 800.654 47.0125V45.8562H822.279V47.0125H821.841C818.695 47.0125 816.3 48.0125 814.654 50.0125C813.008 52.0125 812.185 54.9187 812.185 58.7312V89.95H811.154L773.466 51.2312V77.1687C773.466 79.6895 773.768 81.7104 774.373 83.2312C774.977 84.7312 775.956 85.9083 777.31 86.7625C778.414 87.4291 779.758 87.8562 781.341 88.0437C782.216 88.1895 783.466 88.2937 785.091 88.3562V89.5125H762.31V88.3562C764.643 88.2312 766.539 87.825 767.998 87.1375C769.477 86.4291 770.56 85.3875 771.248 84.0125C771.956 82.6375 772.31 80.9291 772.31 78.8875V54.2C772.31 52.6791 771.966 51.3875 771.279 50.325C770.612 49.2625 769.633 48.45 768.341 47.8875C767.05 47.3041 765.487 47.0125 763.654 47.0125H763.091V45.8562ZM825.279 45.8562H871.716V62.7625H870.779C869.925 59.8041 869.154 57.5958 868.466 56.1375C867.8 54.6583 866.925 53.2625 865.841 51.95C864.529 50.3875 863.102 49.2729 861.56 48.6062C858.998 47.5437 855.883 47.0125 852.216 47.0125H843.623V67.7625H845.935C849.373 67.7625 852.102 66.2833 854.123 63.325C855.164 61.8041 855.935 59.9916 856.435 57.8875C856.685 56.9916 856.914 55.6687 857.123 53.9187H858.216V82.5437H857.123C856.873 81.002 856.57 79.5541 856.216 78.2C855.883 76.825 855.498 75.7104 855.06 74.8562C854.643 74.002 854.102 73.1479 853.435 72.2937C851.56 69.9812 848.893 68.825 845.435 68.825H843.623V88.3562H850.81C852.935 88.3562 854.841 88.2104 856.529 87.9187C858.237 87.6062 859.768 87.1375 861.123 86.5125C862.477 85.8666 863.748 85.0333 864.935 84.0125C866.977 82.2833 868.56 80.127 869.685 77.5437C870.331 76.0645 871.008 74.0645 871.716 71.5437H872.873V89.5125H825.341L825.279 88.3562H826.466C831.758 88.3562 834.404 85.6895 834.404 80.3562V54.95C834.404 52.2416 833.758 50.2416 832.466 48.95C831.175 47.6583 829.175 47.0125 826.466 47.0125H825.279V45.8562ZM919.154 46.7H920.248V61.6687H919.154C917.841 58.0645 916.352 55.252 914.685 53.2312C913.477 51.8145 911.956 50.575 910.123 49.5125C908.31 48.4291 906.268 47.5854 903.998 46.9812C901.748 46.3562 899.466 46.0437 897.154 46.0437C895.425 46.0437 893.883 46.2833 892.529 46.7625C891.175 47.2416 890.029 47.95 889.091 48.8875C888.425 49.5541 887.893 50.3041 887.498 51.1375C887.102 51.9708 886.904 52.7729 886.904 53.5437C886.904 55.002 887.466 56.2625 888.591 57.325C889.112 57.8458 889.852 58.3458 890.81 58.825C891.789 59.3041 893.039 59.7729 894.56 60.2312C896.102 60.6895 898.248 61.252 900.998 61.9187C901.748 62.1479 902.258 62.2833 902.529 62.325L904.06 62.7L906.498 63.325C910.623 64.3875 913.633 65.325 915.529 66.1375C917.425 66.95 919.039 68.0229 920.373 69.3562C921.414 70.3354 922.216 71.4812 922.779 72.7937C923.362 74.1062 923.654 75.5229 923.654 77.0437C923.654 78.5437 923.331 80.0541 922.685 81.575C922.039 83.075 921.123 84.3979 919.935 85.5437C918.393 87.127 916.487 88.3145 914.216 89.1062C911.966 89.8979 909.393 90.2937 906.498 90.2937C904.477 90.2937 902.57 90.0854 900.779 89.6687C899.008 89.2729 896.841 88.5333 894.279 87.45C892.612 86.7833 891.341 86.3354 890.466 86.1062C889.591 85.8562 888.768 85.7312 887.998 85.7312C886.518 85.7312 885.258 86.127 884.216 86.9187C883.195 87.6895 882.518 88.7937 882.185 90.2312H881.091V70.0437H882.185C882.623 73.627 884.07 76.877 886.529 79.7937C888.008 81.502 889.893 83.0958 892.185 84.575C894.498 86.0333 896.914 87.1687 899.435 87.9812C901.956 88.7937 904.352 89.2 906.623 89.2C908.643 89.2 910.487 88.8666 912.154 88.2C913.841 87.5333 915.154 86.6062 916.091 85.4187C917.029 84.2312 917.498 82.8875 917.498 81.3875C917.498 79.8041 916.862 78.377 915.591 77.1062C915.008 76.5437 914.248 76.0229 913.31 75.5437C912.393 75.0645 911.195 74.575 909.716 74.075C908.258 73.575 906.248 72.9812 903.685 72.2937L900.56 71.45C895.685 70.1375 892.31 69.1166 890.435 68.3875C888.331 67.6166 886.675 66.8458 885.466 66.075C884.279 65.3041 883.248 64.325 882.373 63.1375C881.081 61.4708 880.435 59.6375 880.435 57.6375C880.435 55.2208 881.154 53.0541 882.591 51.1375C884.029 49.2 886.039 47.6895 888.623 46.6062C891.206 45.5229 894.07 44.9812 897.216 44.9812C901.966 44.9812 906.893 46.3041 911.998 48.95C913.789 49.8458 915.008 50.2937 915.654 50.2937C917.279 50.2937 918.445 49.0958 919.154 46.7Z" fill="white"/>
</svg>
