<svg width="105" height="105" viewBox="0 0 105 105" fill="none" xmlns="http://www.w3.org/2000/svg">
<path d="M105 52.5C105 81.502 81.502 105 52.5 105C47.0806 105 41.873 104.174 36.9617 102.65C39.0998 99.1573 42.2964 93.4415 43.4819 88.8901C44.1169 86.4345 46.7419 76.4002 46.7419 76.4002C48.4567 79.6603 53.4526 82.4335 58.7661 82.4335C74.6008 82.4335 86.0111 67.869 86.0111 49.7692C86.0111 32.4315 71.8488 19.4546 53.6431 19.4546C30.9919 19.4546 18.9466 34.6542 18.9466 51.2298C18.9466 58.9355 23.0534 68.5252 29.5948 71.5736C30.5897 72.0393 31.119 71.8276 31.3518 70.875C31.5212 70.1552 32.4103 66.5776 32.8125 64.9264C32.9395 64.3972 32.876 63.9315 32.4526 63.4234C30.3145 60.7772 28.5786 55.9506 28.5786 51.4415C28.5786 39.8619 37.3427 28.6633 52.2883 28.6633C65.1804 28.6633 74.2198 37.4486 74.2198 50.0232C74.2198 64.2278 67.0433 74.0716 57.7077 74.0716C52.5635 74.0716 48.6895 69.8165 49.9385 64.5877C51.4204 58.3427 54.2782 51.6109 54.2782 47.1018C54.2782 43.0796 52.119 39.7137 47.631 39.7137C42.3599 39.7137 38.126 45.1542 38.126 52.4577C38.126 57.1149 39.6925 60.248 39.6925 60.248C39.6925 60.248 34.506 82.2218 33.5534 86.3286C32.495 90.8589 32.9183 97.252 33.3629 101.401C13.8448 93.7591 0 74.749 0 52.5C0 23.498 23.498 0 52.5 0C81.502 0 105 23.498 105 52.5Z" fill="black"/>
</svg>
