<svg width="1262" height="258" viewBox="0 0 1262 258" fill="none" xmlns="http://www.w3.org/2000/svg">
<rect y="31" width="1001" height="188" fill="#C78989"/>
<g filter="url(#filter0_dd_251:146)">
<rect x="722.808" width="278.192" height="250" fill="#DC9797"/>
</g>
<path d="M380.034 104.744L381.127 104.744L381.127 119.712L380.034 119.712C378.721 116.108 377.231 113.296 375.565 111.275C374.356 109.858 372.836 108.619 371.002 107.556C369.19 106.473 367.148 105.629 364.877 105.025C362.627 104.4 360.346 104.087 358.034 104.087C356.304 104.087 354.763 104.327 353.409 104.806C352.054 105.285 350.909 105.994 349.971 106.931C349.304 107.598 348.773 108.348 348.377 109.181C347.981 110.014 347.784 110.817 347.784 111.587C347.784 113.046 348.346 114.306 349.471 115.369C349.992 115.889 350.731 116.389 351.69 116.869C352.669 117.348 353.919 117.817 355.44 118.275C356.981 118.733 359.127 119.296 361.877 119.962C362.627 120.192 363.138 120.327 363.409 120.369L364.94 120.744L367.377 121.369C371.502 122.431 374.513 123.369 376.409 124.181C378.304 124.994 379.919 126.067 381.252 127.4C382.294 128.379 383.096 129.525 383.659 130.837C384.242 132.15 384.534 133.567 384.534 135.087C384.534 136.587 384.211 138.098 383.565 139.619C382.919 141.119 382.002 142.442 380.815 143.587C379.273 145.171 377.367 146.358 375.096 147.15C372.846 147.942 370.273 148.337 367.377 148.337C365.356 148.337 363.45 148.129 361.659 147.712C359.888 147.317 357.721 146.577 355.159 145.494C353.492 144.827 352.221 144.379 351.346 144.15C350.471 143.9 349.648 143.775 348.877 143.775C347.398 143.775 346.138 144.171 345.096 144.962C344.075 145.733 343.398 146.837 343.065 148.275L341.971 148.275L341.971 128.087L343.065 128.087C343.502 131.671 344.95 134.921 347.409 137.837C348.888 139.546 350.773 141.139 353.065 142.619C355.377 144.077 357.794 145.212 360.315 146.025C362.836 146.837 365.231 147.244 367.502 147.244C369.523 147.244 371.367 146.91 373.034 146.244C374.721 145.577 376.034 144.65 376.971 143.462C377.909 142.275 378.377 140.931 378.377 139.431C378.377 137.848 377.742 136.421 376.471 135.15C375.888 134.587 375.127 134.067 374.19 133.587C373.273 133.108 372.075 132.619 370.596 132.119C369.138 131.619 367.127 131.025 364.565 130.337L361.44 129.494C356.565 128.181 353.19 127.16 351.315 126.431C349.211 125.66 347.554 124.889 346.346 124.119C345.159 123.348 344.127 122.369 343.252 121.181C341.961 119.514 341.315 117.681 341.315 115.681C341.315 113.264 342.034 111.098 343.471 109.181C344.909 107.244 346.919 105.733 349.502 104.65C352.086 103.567 354.95 103.025 358.096 103.025C362.846 103.025 367.773 104.348 372.877 106.994C374.669 107.889 375.888 108.337 376.534 108.337C378.159 108.337 379.325 107.139 380.034 104.744ZM410.721 113.244L402.159 132.712L419.502 132.712L410.721 113.244ZM414.034 103.025L415.19 103.025L432.752 141.212C433.315 142.4 433.94 143.379 434.627 144.15C435.336 144.921 436.127 145.483 437.002 145.837C437.877 146.171 438.909 146.337 440.096 146.337L441.252 146.337L441.252 147.556L415.909 147.556L415.909 146.337L419.221 146.337C420.867 146.337 422.065 146.119 422.815 145.681C423.586 145.223 423.971 144.525 423.971 143.587C423.971 143.004 423.815 142.296 423.502 141.462C423.211 140.629 422.554 139.119 421.534 136.931C421.471 136.806 421.377 136.598 421.252 136.306C421.127 136.014 420.992 135.733 420.846 135.462L420.127 133.869L401.627 133.869L400.221 137.119C399.763 138.223 399.534 139.337 399.534 140.462C399.534 141.421 399.794 142.369 400.315 143.306C400.856 144.244 401.554 144.952 402.409 145.431C402.971 145.764 403.471 145.994 403.909 146.119C404.367 146.223 405.013 146.296 405.846 146.337L405.846 147.556L388.065 147.556L388.065 146.337C389.356 146.192 390.377 145.962 391.127 145.65C391.898 145.337 392.752 144.817 393.69 144.087C395.898 142.379 398.054 139.16 400.159 134.431L414.034 103.025ZM444.69 103.9L474.471 103.9L474.471 105.056L471.315 105.056C468.627 105.056 466.638 105.702 465.346 106.994C464.054 108.285 463.409 110.285 463.409 112.994L463.409 146.4L474.721 146.4C476.95 146.4 479.054 145.91 481.034 144.931C483.013 143.931 484.731 142.546 486.19 140.775C487.065 139.671 487.836 138.577 488.502 137.494C489.169 136.41 489.804 135.098 490.409 133.556C491.013 132.014 491.606 130.244 492.19 128.244L493.346 128.244L493.346 147.556L444.69 147.556L444.627 146.4L446.252 146.4C451.544 146.4 454.19 143.733 454.19 138.4L454.19 112.994C454.19 107.702 451.544 105.056 446.252 105.056L444.69 105.056L444.69 103.9ZM497.534 103.9L543.971 103.9L543.971 120.806L543.034 120.806C542.179 117.848 541.409 115.639 540.721 114.181C540.054 112.702 539.179 111.306 538.096 109.994C536.784 108.431 535.356 107.317 533.815 106.65C531.252 105.587 528.138 105.056 524.471 105.056L515.877 105.056L515.877 125.806L518.19 125.806C521.627 125.806 524.356 124.327 526.377 121.369C527.419 119.848 528.19 118.035 528.69 115.931C528.94 115.035 529.169 113.712 529.377 111.962L530.471 111.962L530.471 140.587L529.377 140.587C529.127 139.046 528.825 137.598 528.471 136.244C528.138 134.869 527.752 133.754 527.315 132.9C526.898 132.046 526.356 131.192 525.69 130.337C523.815 128.025 521.148 126.869 517.69 126.869L515.877 126.869L515.877 146.4L523.065 146.4C525.19 146.4 527.096 146.254 528.784 145.962C530.492 145.65 532.023 145.181 533.377 144.556C534.731 143.91 536.002 143.077 537.19 142.056C539.231 140.327 540.815 138.171 541.94 135.587C542.586 134.108 543.263 132.108 543.971 129.587L545.127 129.587L545.127 147.556L497.596 147.556L497.534 146.4L498.721 146.4C504.013 146.4 506.659 143.733 506.659 138.4L506.659 112.994C506.659 110.285 506.013 108.285 504.721 106.994C503.429 105.702 501.429 105.056 498.721 105.056L497.534 105.056L497.534 103.9Z" fill="white"/>
<g filter="url(#filter1_d_251:146)">
<path d="M148 48.1484L719.066 48.1484L719.066 203.973L148 203.973L148 48.1484Z" fill="white" fill-opacity="0.02" shape-rendering="crispEdges"/>
<path d="M148 47.6484L147.5 47.6484L147.5 48.1484L147.5 51.184L148 51.184L148 59.2788L147.5 59.2788L147.5 65.3498L148 65.3498L148 73.4446L147.5 73.4446L147.5 79.5157L148 79.5157L148 87.6105L147.5 87.6105L147.5 93.6815L148 93.6815L148 101.776L147.5 101.776L147.5 107.847L148 107.847L148 115.942L147.5 115.942L147.5 122.013L148 122.013L148 130.108L147.5 130.108L147.5 136.179L148 136.179L148 144.274L147.5 144.274L147.5 150.345L148 150.345L148 158.44L147.5 158.44L147.5 164.511L148 164.511L148 172.606L147.5 172.606L147.5 178.677L148 178.677L148 186.771L147.5 186.771L147.5 192.843L148 192.843L148 200.937L147.5 200.937L147.5 203.973L147.5 204.473L148 204.473L150.985 204.473L150.985 203.973L158.944 203.973L158.944 204.473L164.913 204.473L164.913 203.973L172.872 203.973L172.872 204.473L178.842 204.473L178.842 203.973L186.801 203.973L186.801 204.473L192.77 204.473L192.77 203.973L200.729 203.973L200.729 204.473L206.698 204.473L206.698 203.973L214.657 203.973L214.657 204.473L220.627 204.473L220.627 203.973L228.586 203.973L228.586 204.473L234.555 204.473L234.555 203.973L242.514 203.973L242.514 204.473L248.484 204.473L248.484 203.973L256.443 203.973L256.443 204.473L262.412 204.473L262.412 203.973L270.371 203.973L270.371 204.473L276.341 204.473L276.341 203.973L284.3 203.973L284.3 204.473L290.269 204.473L290.269 203.973L298.228 203.973L298.228 204.473L304.197 204.473L304.197 203.973L312.157 203.973L312.157 204.473L318.126 204.473L318.126 203.973L326.085 203.973L326.085 204.473L332.054 204.473L332.054 203.973L340.013 203.973L340.013 204.473L345.983 204.473L345.983 203.973L353.942 203.973L353.942 204.473L359.911 204.473L359.911 203.973L367.87 203.973L367.87 204.473L373.84 204.473L373.84 203.973L381.799 203.973L381.799 204.473L387.768 204.473L387.768 203.973L395.727 203.973L395.727 204.473L401.696 204.473L401.696 203.973L409.656 203.973L409.656 204.473L415.625 204.473L415.625 203.973L423.584 203.973L423.584 204.473L429.553 204.473L429.553 203.973L437.512 203.973L437.512 204.473L443.482 204.473L443.482 203.973L451.441 203.973L451.441 204.473L457.41 204.473L457.41 203.973L465.369 203.973L465.369 204.473L471.339 204.473L471.339 203.973L479.298 203.973L479.298 204.473L485.267 204.473L485.267 203.973L493.226 203.973L493.226 204.473L499.196 204.473L499.196 203.973L507.155 203.973L507.155 204.473L513.124 204.473L513.124 203.973L521.083 203.973L521.083 204.473L527.052 204.473L527.052 203.973L535.012 203.973L535.012 204.473L540.981 204.473L540.981 203.973L548.94 203.973L548.94 204.473L554.909 204.473L554.909 203.973L562.868 203.973L562.868 204.473L568.838 204.473L568.838 203.973L576.797 203.973L576.797 204.473L582.766 204.473L582.766 203.973L590.725 203.973L590.725 204.473L596.695 204.473L596.695 203.973L604.654 203.973L604.654 204.473L610.623 204.473L610.623 203.973L618.582 203.973L618.582 204.473L624.551 204.473L624.551 203.973L632.511 203.973L632.511 204.473L638.48 204.473L638.48 203.973L646.439 203.973L646.439 204.473L652.408 204.473L652.408 203.973L660.367 203.973L660.367 204.473L666.337 204.473L666.337 203.973L674.296 203.973L674.296 204.473L680.265 204.473L680.265 203.973L688.224 203.973L688.224 204.473L694.194 204.473L694.194 203.973L702.153 203.973L702.153 204.473L708.122 204.473L708.122 203.973L716.081 203.973L716.081 204.473L719.066 204.473L719.566 204.473L719.566 203.973L719.566 200.937L719.066 200.937L719.066 192.843L719.566 192.843L719.566 186.771L719.066 186.771L719.066 178.677L719.566 178.677L719.566 172.606L719.066 172.606L719.066 164.511L719.566 164.511L719.566 158.44L719.066 158.44L719.066 150.345L719.566 150.345L719.566 144.274L719.066 144.274L719.066 136.179L719.566 136.179L719.566 130.108L719.066 130.108L719.066 122.013L719.566 122.013L719.566 115.942L719.066 115.942L719.066 107.847L719.566 107.847L719.566 101.776L719.066 101.776L719.066 93.6815L719.566 93.6815L719.566 87.6105L719.066 87.6105L719.066 79.5157L719.566 79.5157L719.566 73.4446L719.066 73.4446L719.066 65.3498L719.566 65.3498L719.566 59.2787L719.066 59.2787L719.066 51.184L719.566 51.184L719.566 48.1484L719.566 47.6484L719.066 47.6484L716.081 47.6484L716.081 48.1484L708.122 48.1484L708.122 47.6484L702.153 47.6484L702.153 48.1484L694.193 48.1484L694.193 47.6484L688.224 47.6484L688.224 48.1484L680.265 48.1484L680.265 47.6484L674.296 47.6484L674.296 48.1484L666.337 48.1484L666.337 47.6484L660.367 47.6484L660.367 48.1484L652.408 48.1484L652.408 47.6484L646.439 47.6484L646.439 48.1484L638.48 48.1484L638.48 47.6484L632.51 47.6484L632.51 48.1484L624.551 48.1484L624.551 47.6484L618.582 47.6484L618.582 48.1484L610.623 48.1484L610.623 47.6484L604.653 47.6484L604.653 48.1484L596.694 48.1484L596.694 47.6484L590.725 47.6484L590.725 48.1484L582.766 48.1484L582.766 47.6484L576.797 47.6484L576.797 48.1484L568.838 48.1484L568.838 47.6484L562.868 47.6484L562.868 48.1484L554.909 48.1484L554.909 47.6484L548.94 47.6484L548.94 48.1484L540.981 48.1484L540.981 47.6484L535.011 47.6484L535.011 48.1484L527.052 48.1484L527.052 47.6484L521.083 47.6484L521.083 48.1484L513.124 48.1484L513.124 47.6484L507.154 47.6484L507.154 48.1484L499.195 48.1484L499.195 47.6484L493.226 47.6484L493.226 48.1484L485.267 48.1484L485.267 47.6484L479.298 47.6484L479.298 48.1484L471.338 48.1484L471.338 47.6484L465.369 47.6484L465.369 48.1484L457.41 48.1484L457.41 47.6484L451.441 47.6484L451.441 48.1484L443.482 48.1484L443.482 47.6484L437.512 47.6484L437.512 48.1484L429.553 48.1484L429.553 47.6484L423.584 47.6484L423.584 48.1484L415.625 48.1484L415.625 47.6484L409.655 47.6484L409.655 48.1484L401.696 48.1484L401.696 47.6484L395.727 47.6484L395.727 48.1484L387.768 48.1484L387.768 47.6484L381.799 47.6484L381.799 48.1484L373.839 48.1484L373.839 47.6484L367.87 47.6484L367.87 48.1484L359.911 48.1484L359.911 47.6484L353.942 47.6484L353.942 48.1484L345.983 48.1484L345.983 47.6484L340.013 47.6484L340.013 48.1484L332.054 48.1484L332.054 47.6484L326.085 47.6484L326.085 48.1484L318.126 48.1484L318.126 47.6484L312.156 47.6484L312.156 48.1484L304.197 48.1484L304.197 47.6484L298.228 47.6484L298.228 48.1484L290.269 48.1484L290.269 47.6484L284.299 47.6484L284.299 48.1484L276.34 48.1484L276.34 47.6484L270.371 47.6484L270.371 48.1484L262.412 48.1484L262.412 47.6484L256.443 47.6484L256.443 48.1484L248.483 48.1484L248.483 47.6484L242.514 47.6484L242.514 48.1484L234.555 48.1484L234.555 47.6484L228.586 47.6484L228.586 48.1484L220.627 48.1484L220.627 47.6484L214.657 47.6484L214.657 48.1484L206.698 48.1484L206.698 47.6484L200.729 47.6484L200.729 48.1484L192.77 48.1484L192.77 47.6484L186.8 47.6484L186.8 48.1484L178.841 48.1484L178.841 47.6484L172.872 47.6484L172.872 48.1484L164.913 48.1484L164.913 47.6484L158.944 47.6484L158.944 48.1484L150.985 48.1484L150.985 47.6484L148 47.6484Z" stroke="white" stroke-opacity="0.87" stroke-dasharray="6 8" shape-rendering="crispEdges"/>
</g>
<circle cx="146" cy="125" r="54.5" fill="white" fill-opacity="0.22" stroke="white"/>
<circle cx="32" cy="180" r="19.5" fill="#DC9797" stroke="white"/>
<circle cx="32" cy="58" r="20" fill="#934343" fill-opacity="0.57"/>
<circle cx="62" cy="125" r="20" fill="white"/>
<path d="M763.858 39.8936H787.515V40.7969H784.805C782.722 40.7969 781.167 41.3096 780.142 42.335C779.116 43.3441 778.604 44.8984 778.604 46.998V64.3076C778.604 66.277 779.059 67.9697 779.971 69.3857C780.882 70.8018 782.193 71.8923 783.902 72.6572C785.611 73.4222 787.645 73.8047 790.005 73.8047C792.072 73.8047 794.001 73.5117 795.791 72.9258C797.582 72.3236 799.006 71.5016 800.064 70.46C802.001 68.4743 802.969 65.6911 802.969 62.1104V49.9033C802.969 45.9971 801.83 43.3441 799.551 41.9443C798.9 41.5374 798.216 41.2526 797.5 41.0898C796.784 40.9271 795.751 40.8294 794.4 40.7969V39.8936H810.952V40.7969C809.927 40.8783 809.113 41.0166 808.511 41.2119C807.909 41.4072 807.29 41.7327 806.655 42.1885C805.728 42.8883 805.02 43.8242 804.531 44.9961C804.043 46.1517 803.799 47.5189 803.799 49.0977V62.6963C803.799 66.3096 802.814 69.0765 800.845 70.9971C799.754 72.0387 798.591 72.7874 797.354 73.2432C794.75 74.2197 791.649 74.708 788.052 74.708C785.399 74.708 782.99 74.4476 780.825 73.9268C778.661 73.4059 776.87 72.6654 775.454 71.7051C772.785 69.8659 771.45 67.2292 771.45 63.7949V46.998C771.45 42.8639 769.383 40.7969 765.249 40.7969H763.858V39.8936ZM827.554 40.7969V57.7891H834.365C837.735 57.7891 840.225 57.0973 841.836 55.7139C843.447 54.3141 844.253 52.1576 844.253 49.2441C844.253 45.8424 843.138 43.4743 840.908 42.1396C840.111 41.6676 839.175 41.3258 838.101 41.1143C837.027 40.9027 835.692 40.7969 834.097 40.7969H827.554ZM813.003 39.8936H833.364C834.569 39.8936 835.887 39.9342 837.32 40.0156C838.752 40.097 840.038 40.2028 841.177 40.333C842.316 40.4469 843.26 40.5853 844.009 40.748C846.695 41.3177 848.745 42.3431 850.161 43.8242C851.594 45.2891 852.31 47.112 852.31 49.293C852.31 50.7904 851.968 52.125 851.284 53.2969C850.601 54.4688 849.592 55.4616 848.257 56.2754C846.939 57.0729 845.319 57.6833 843.399 58.1064C841.478 58.5296 839.313 58.7412 836.905 58.7412H827.554V66.8467C827.554 71.0133 829.621 73.0967 833.755 73.0967H835.464V74H812.954V73.0967H814.151C818.285 73.0967 820.352 71.0133 820.352 66.8467V46.998C820.352 42.8639 818.285 40.7969 814.151 40.7969H813.003V39.8936ZM872.158 39.8936H912.149V57.2031L911.367 57.252C910.961 52.9225 909.658 49.2035 907.461 46.0947C904.857 42.5628 901.553 40.7969 897.549 40.7969H895.767V66.8467C895.767 70.9808 897.826 73.0479 901.944 73.0479H907.095V74H877.31V73.0479H882.412C886.546 73.0479 888.613 70.9808 888.613 66.8467V40.7969H886.416C882.347 40.7969 879.043 42.7012 876.504 46.5098C875.251 48.3815 874.299 50.6113 873.648 53.1992C873.436 54.0781 873.224 55.4128 873.013 57.2031H872.158V39.8936ZM937.759 39.21C940.949 39.21 943.863 39.7227 946.499 40.748C949.152 41.7572 951.455 43.2383 953.408 45.1914C955.052 46.8516 956.322 48.707 957.217 50.7578C958.112 52.7923 958.56 54.8757 958.56 57.0078C958.56 60.2142 957.648 63.1683 955.825 65.8701C954.019 68.5719 951.553 70.7122 948.428 72.291C945.319 73.8698 941.909 74.6592 938.198 74.6592C935.366 74.6592 932.697 74.2116 930.191 73.3164C927.7 72.4212 925.503 71.1598 923.599 69.5322C921.695 67.8883 920.205 65.9759 919.131 63.7949C918.073 61.6139 917.544 59.3353 917.544 56.959C917.544 53.8014 918.464 50.8555 920.303 48.1211C922.142 45.3867 924.608 43.222 927.7 41.627C930.793 40.0156 934.146 39.21 937.759 39.21ZM938.394 40.0889C936.913 40.0889 935.513 40.3493 934.195 40.8701C932.892 41.3747 931.794 42.099 930.899 43.043C929.922 44.0684 929.084 45.2891 928.384 46.7051C927.7 48.1048 927.18 49.6755 926.822 51.417C926.48 53.1423 926.309 55.0059 926.309 57.0078C926.309 59.5143 926.586 61.8011 927.139 63.8682C927.692 65.9189 928.49 67.693 929.531 69.1904C930.573 70.6715 931.818 71.8027 933.267 72.584C934.715 73.3652 936.327 73.7559 938.101 73.7559C940.51 73.7559 942.601 73.0723 944.375 71.7051C946.166 70.3216 947.533 68.3522 948.477 65.7969C949.437 63.2415 949.917 60.2061 949.917 56.6904C949.917 54.4118 949.657 52.2796 949.136 50.2939C948.615 48.3083 947.866 46.583 946.89 45.1182C945.913 43.637 944.733 42.4652 943.35 41.6025C942.666 41.1468 941.877 40.7806 940.982 40.5039C940.086 40.2272 939.224 40.0889 938.394 40.0889Z" fill="white"/>
<path d="M809.097 125.858V125.805V125.912C811.908 126.324 813.94 126.807 815.193 127.362C816.715 127.953 817.986 128.669 819.007 129.511C820.045 130.352 820.824 131.319 821.343 132.411C821.862 133.485 822.122 134.64 822.122 135.875C822.122 137.988 821.388 139.859 819.92 141.488C818.47 143.118 816.402 144.38 813.716 145.275C811.049 146.17 808.023 146.618 804.639 146.618C802.706 146.618 800.799 146.421 798.919 146.027C797.057 145.633 795.571 145.132 794.461 144.523C793.261 143.807 792.295 142.885 791.561 141.757C790.844 140.629 790.486 139.492 790.486 138.346C790.486 137.021 790.916 135.92 791.775 135.043C792.635 134.166 793.709 133.727 794.998 133.727C796.269 133.727 797.299 134.13 798.086 134.936C798.892 135.723 799.295 136.717 799.295 137.917C799.295 138.668 799.116 139.331 798.758 139.904C798.418 140.459 797.845 141.005 797.039 141.542C796.269 142.025 795.884 142.464 795.884 142.858C795.884 143.664 796.663 144.326 798.221 144.845C799.796 145.364 801.748 145.624 804.075 145.624C807.352 145.624 809.742 144.89 811.246 143.422C812.857 141.739 813.564 139.295 813.367 136.09C813.152 132.438 812.347 129.949 810.95 128.625C809.5 127.228 807.432 126.53 804.747 126.53C804.084 126.53 802.876 126.601 801.121 126.745C800.638 126.816 800.154 126.852 799.671 126.852C798.65 126.852 798.14 126.539 798.14 125.912C798.14 125.303 798.713 124.999 799.859 124.999C800.074 124.999 800.674 125.053 801.658 125.16C802.929 125.303 803.977 125.375 804.8 125.375C806.394 125.375 807.674 125.124 808.641 124.623C809.607 124.104 810.306 123.289 810.735 122.179C811.183 121.069 811.407 119.547 811.407 117.614C811.407 116.54 811.317 115.564 811.138 114.687C810.959 113.791 810.7 112.986 810.359 112.27C810.037 111.553 809.634 110.972 809.151 110.524C807.933 109.306 806.188 108.698 803.914 108.698C802.553 108.698 801.282 108.85 800.101 109.154C798.919 109.459 797.961 109.861 797.227 110.363C796.511 110.846 796.153 111.356 796.153 111.894C796.153 112.18 796.242 112.422 796.421 112.619C796.6 112.798 796.932 113.03 797.415 113.317C798.257 113.729 798.865 114.221 799.241 114.794C799.617 115.349 799.805 116.056 799.805 116.916C799.805 118.097 799.411 119.073 798.624 119.843C797.854 120.595 796.887 120.971 795.723 120.971C794.488 120.971 793.449 120.55 792.608 119.708C791.784 118.849 791.373 117.802 791.373 116.566C791.373 114.848 791.963 113.308 793.145 111.947C794.345 110.587 796.019 109.539 798.167 108.805C800.333 108.053 802.786 107.677 805.525 107.677C808.354 107.677 810.825 108.071 812.938 108.859C815.05 109.629 816.688 110.739 817.852 112.189C819.016 113.621 819.598 115.304 819.598 117.238C819.598 118.455 819.338 119.583 818.819 120.622C818.318 121.642 817.566 122.528 816.563 123.28C815.417 124.14 813.806 124.82 811.729 125.321C811.21 125.447 810.333 125.626 809.097 125.858ZM856.094 107.731L856.202 108.375C855.289 109.718 854.402 110.775 853.543 111.544C852.684 112.296 851.547 113.039 850.132 113.773C848.503 114.597 846.677 115.224 844.654 115.653C842.649 116.083 840.5 116.298 838.208 116.298C835.917 116.298 833.446 116.101 830.796 115.707L829.185 126.583C831.709 125.133 833.759 124.158 835.335 123.656C836.928 123.155 838.799 122.904 840.948 122.904C842.881 122.904 844.663 123.074 846.292 123.415C847.921 123.737 849.389 124.22 850.696 124.865C852.021 125.509 853.176 126.324 854.161 127.309C855.181 128.311 855.969 129.466 856.524 130.773C857.079 132.062 857.356 133.378 857.356 134.721C857.356 137.549 856.327 139.949 854.268 141.918C851.045 145.087 846.265 146.671 839.927 146.671C838.029 146.671 836.15 146.474 834.288 146.081C832.444 145.687 830.966 145.185 829.856 144.577C828.657 143.878 827.726 143.028 827.063 142.025C826.419 141.023 826.097 139.949 826.097 138.803C826.097 137.478 826.535 136.386 827.413 135.526C828.29 134.667 829.373 134.237 830.662 134.237C831.521 134.237 832.282 134.425 832.945 134.801C833.607 135.159 834.135 135.661 834.529 136.305C834.923 136.95 835.12 137.666 835.12 138.454C835.12 140.029 834.297 141.264 832.649 142.16C831.951 142.554 831.602 142.921 831.602 143.261C831.602 143.852 832.345 144.398 833.831 144.899C835.335 145.382 837 145.624 838.826 145.624C842.174 145.624 844.627 144.729 846.185 142.938C847.76 141.13 848.548 138.301 848.548 134.452C848.548 132.214 848.199 130.316 847.5 128.759C846.82 127.201 845.791 126.011 844.412 125.187C843.034 124.363 841.422 123.952 839.578 123.952C838.361 123.952 837.215 124.086 836.141 124.354C835.066 124.623 833.938 125.053 832.757 125.644C831.593 126.234 830.349 126.986 829.024 127.899H828.084L830.958 107.597C832.247 108.026 833.383 108.322 834.368 108.483C837.09 108.966 840.133 109.208 843.499 109.208C845.146 109.208 846.686 109.163 848.118 109.074C849.55 108.966 850.929 108.805 852.254 108.59C853.579 108.358 854.859 108.071 856.094 107.731ZM874.49 108.59C872.736 108.59 871.429 109.306 870.569 110.739C869.764 112.082 869.361 114.579 869.361 118.231C869.361 121.221 869.782 123.459 870.623 124.945C871.482 126.413 872.771 127.147 874.49 127.147C876.245 127.147 877.525 126.422 878.331 124.972C879.136 123.522 879.539 121.257 879.539 118.178C879.539 114.83 879.136 112.395 878.331 110.873C877.543 109.351 876.263 108.59 874.49 108.59ZM874.249 107.677C878.617 107.677 881.813 108.716 883.836 110.792C884.713 111.67 885.385 112.708 885.85 113.908C886.333 115.089 886.575 116.361 886.575 117.721C886.575 119.082 886.333 120.389 885.85 121.642C885.367 122.877 884.677 123.943 883.782 124.838C882.762 125.858 881.473 126.637 879.915 127.174C878.357 127.694 876.513 127.953 874.383 127.953C871.912 127.953 869.764 127.541 867.938 126.718C866.129 125.894 864.733 124.722 863.748 123.2C862.763 121.66 862.271 119.87 862.271 117.829C862.271 115.77 862.754 113.979 863.721 112.458C864.688 110.918 866.076 109.736 867.884 108.913C869.692 108.089 871.814 107.677 874.249 107.677ZM908.624 127.147C906.851 127.147 905.562 127.855 904.756 129.269C903.969 130.666 903.575 132.939 903.575 136.09C903.575 139.385 903.978 141.793 904.783 143.314C905.589 144.818 906.869 145.57 908.624 145.57C910.414 145.57 911.703 144.854 912.491 143.422C913.296 141.972 913.699 139.626 913.699 136.386C913.699 133.181 913.287 130.845 912.464 129.376C911.658 127.89 910.378 127.147 908.624 127.147ZM908.624 126.154C912.67 126.154 915.794 127.21 917.996 129.323C919.858 131.221 920.789 133.593 920.789 136.439C920.789 138.516 920.288 140.307 919.285 141.811C918.3 143.314 916.877 144.478 915.015 145.302C913.171 146.125 911.005 146.537 908.516 146.537C906.081 146.537 903.951 146.116 902.125 145.275C900.316 144.433 898.92 143.252 897.935 141.73C896.968 140.19 896.485 138.409 896.485 136.386C896.485 134.846 896.762 133.432 897.317 132.143C897.89 130.854 898.705 129.761 899.761 128.866C900.818 127.971 902.098 127.3 903.602 126.852C905.105 126.387 906.779 126.154 908.624 126.154ZM909.295 107.543L875.538 146.537H873.819L907.469 107.543H909.295ZM819.061 171.731C822.57 171.731 825.774 172.295 828.675 173.423C831.593 174.533 834.126 176.162 836.275 178.311C838.083 180.137 839.48 182.178 840.464 184.434C841.449 186.672 841.941 188.963 841.941 191.309C841.941 194.836 840.939 198.085 838.934 201.057C836.946 204.029 834.234 206.383 830.796 208.12C827.377 209.857 823.626 210.725 819.544 210.725C816.429 210.725 813.493 210.233 810.735 209.248C807.996 208.263 805.579 206.876 803.484 205.085C801.39 203.277 799.751 201.174 798.57 198.774C797.406 196.375 796.824 193.869 796.824 191.255C796.824 187.782 797.836 184.541 799.859 181.533C801.882 178.525 804.594 176.144 807.996 174.39C811.398 172.617 815.086 171.731 819.061 171.731ZM819.759 172.698C818.13 172.698 816.59 172.984 815.14 173.557C813.707 174.112 812.499 174.909 811.514 175.947C810.44 177.075 809.518 178.418 808.748 179.976C807.996 181.515 807.423 183.243 807.029 185.159C806.653 187.056 806.465 189.106 806.465 191.309C806.465 194.066 806.77 196.581 807.378 198.855C807.987 201.111 808.864 203.062 810.01 204.709C811.156 206.339 812.526 207.583 814.119 208.442C815.713 209.302 817.485 209.731 819.437 209.731C822.086 209.731 824.387 208.979 826.338 207.476C828.308 205.954 829.812 203.787 830.85 200.977C831.906 198.166 832.435 194.827 832.435 190.959C832.435 188.453 832.148 186.108 831.575 183.923C831.002 181.739 830.179 179.841 829.104 178.23C828.03 176.601 826.732 175.312 825.21 174.363C824.458 173.861 823.59 173.459 822.605 173.154C821.621 172.85 820.672 172.698 819.759 172.698ZM863.345 173.477V189.751H865.708C868.197 189.751 870.14 188.936 871.536 187.307C872.933 185.678 873.935 183.046 874.544 179.412H875.484V200.923H874.49C874.204 199.061 873.855 197.584 873.443 196.492C873.031 195.4 872.467 194.424 871.751 193.564C870.229 191.685 868.045 190.745 865.198 190.745H863.345V202.131C863.345 204.441 863.9 206.16 865.01 207.288C866.138 208.398 867.848 208.953 870.14 208.953H872.53V210H847.662V208.953H848.602C850.911 208.953 852.621 208.398 853.731 207.288C854.859 206.16 855.423 204.441 855.423 202.131V180.298C855.423 177.97 854.868 176.252 853.758 175.142C852.648 174.032 850.929 173.477 848.602 173.477H847.662V172.483H888.697V188.704H887.811C887.542 187.307 887.247 186.027 886.924 184.863C886.602 183.7 886.289 182.804 885.984 182.178C885.089 180.19 883.997 178.561 882.708 177.29C881.437 176.001 879.924 175.043 878.169 174.417C876.433 173.79 874.454 173.477 872.234 173.477H863.345ZM908.624 173.477V189.751H910.987C913.475 189.751 915.418 188.936 916.814 187.307C918.211 185.678 919.214 183.046 919.822 179.412H920.762V200.923H919.769C919.482 199.061 919.133 197.584 918.721 196.492C918.309 195.4 917.745 194.424 917.029 193.564C915.507 191.685 913.323 190.745 910.477 190.745H908.624V202.131C908.624 204.441 909.179 206.16 910.289 207.288C911.417 208.398 913.126 208.953 915.418 208.953H917.808V210H892.94V208.953H893.88C896.189 208.953 897.899 208.398 899.009 207.288C900.137 206.16 900.701 204.441 900.701 202.131V180.298C900.701 177.97 900.146 176.252 899.036 175.142C897.926 174.032 896.207 173.477 893.88 173.477H892.94V172.483H933.975V188.704H933.089C932.82 187.307 932.525 186.027 932.203 184.863C931.88 183.7 931.567 182.804 931.263 182.178C930.368 180.19 929.275 178.561 927.986 177.29C926.715 176.001 925.202 175.043 923.448 174.417C921.711 173.79 919.733 173.477 917.513 173.477H908.624Z" fill="white"/>
<defs>
<filter id="filter0_dd_251:146" x="718.808" y="0" width="286.192" height="258" filterUnits="userSpaceOnUse" color-interpolation-filters="sRGB">
<feFlood flood-opacity="0" result="BackgroundImageFix"/>
<feColorMatrix in="SourceAlpha" type="matrix" values="0 0 0 0 0 0 0 0 0 0 0 0 0 0 0 0 0 0 127 0" result="hardAlpha"/>
<feOffset dy="4"/>
<feGaussianBlur stdDeviation="2"/>
<feComposite in2="hardAlpha" operator="out"/>
<feColorMatrix type="matrix" values="0 0 0 0 0 0 0 0 0 0 0 0 0 0 0 0 0 0 0.25 0"/>
<feBlend mode="normal" in2="BackgroundImageFix" result="effect1_dropShadow_251:146"/>
<feColorMatrix in="SourceAlpha" type="matrix" values="0 0 0 0 0 0 0 0 0 0 0 0 0 0 0 0 0 0 127 0" result="hardAlpha"/>
<feOffset dy="4"/>
<feGaussianBlur stdDeviation="2"/>
<feComposite in2="hardAlpha" operator="out"/>
<feColorMatrix type="matrix" values="0 0 0 0 0 0 0 0 0 0 0 0 0 0 0 0 0 0 0.25 0"/>
<feBlend mode="normal" in2="effect1_dropShadow_251:146" result="effect2_dropShadow_251:146"/>
<feBlend mode="normal" in="SourceGraphic" in2="effect2_dropShadow_251:146" result="shape"/>
</filter>
<filter id="filter1_d_251:146" x="143" y="47.1484" width="581.066" height="165.824" filterUnits="userSpaceOnUse" color-interpolation-filters="sRGB">
<feFlood flood-opacity="0" result="BackgroundImageFix"/>
<feColorMatrix in="SourceAlpha" type="matrix" values="0 0 0 0 0 0 0 0 0 0 0 0 0 0 0 0 0 0 127 0" result="hardAlpha"/>
<feOffset dy="4"/>
<feGaussianBlur stdDeviation="2"/>
<feComposite in2="hardAlpha" operator="out"/>
<feColorMatrix type="matrix" values="0 0 0 0 0 0 0 0 0 0 0 0 0 0 0 0 0 0 0.25 0"/>
<feBlend mode="normal" in2="BackgroundImageFix" result="effect1_dropShadow_251:146"/>
<feBlend mode="normal" in="SourceGraphic" in2="effect1_dropShadow_251:146" result="shape"/>
</filter>
</defs>
</svg>
