<svg width="90" height="70" viewBox="0 0 90 70" fill="none" xmlns="http://www.w3.org/2000/svg">
<path d="M90 8.28159C86.6896 9.68744 83.134 10.6378 79.3956 11.065C83.211 8.87846 86.1339 5.41356 87.5139 1.28976C83.8897 3.3499 79.9232 4.80024 75.7869 5.57778C72.4208 2.1439 67.6207 0 62.3102 0C52.1169 0 43.8502 7.90846 43.8502 17.6696C43.8502 19.0526 44.0129 20.4019 44.3258 21.6974C28.9812 20.9593 15.3772 13.9248 6.27139 3.23591C4.68138 5.84645 3.77127 8.88166 3.77127 12.1201C3.77127 18.2496 7.03112 23.6577 11.9844 26.8256C9.05215 26.7386 6.18424 25.9812 3.62042 24.6165V24.8398C3.62042 33.4017 9.98356 40.5408 18.4302 42.1645C16.8786 42.5714 15.2502 42.7839 13.5656 42.7839C12.3745 42.7839 11.219 42.6761 10.0901 42.4728C12.4396 49.4905 19.2581 54.5986 27.335 54.743C21.0162 59.4835 13.0542 62.3093 4.40661 62.3093C2.91716 62.3093 1.44512 62.2243 0 62.0576C8.17192 67.0724 17.8747 70 28.3016 70C62.2599 70 80.8319 43.0754 80.8319 19.7261C80.8319 18.9596 80.8143 18.1987 80.7757 17.4406C84.3941 14.9358 87.5176 11.8344 90 8.28159Z" fill="black"/>
</svg>
