<svg width="122" height="91" viewBox="0 0 122 91" fill="none" xmlns="http://www.w3.org/2000/svg">
<path d="M119.147 14.3243C117.752 8.73514 113.639 4.33329 108.418 2.83946C98.9532 0.125 61.0019 0.125 61.0019 0.125C61.0019 0.125 23.0508 0.125 13.5861 2.83946C8.36453 4.33353 4.25209 8.73514 2.85631 14.3243C0.320312 24.455 0.320312 45.5917 0.320312 45.5917C0.320312 45.5917 0.320312 66.7284 2.85631 76.8591C4.25209 82.4482 8.36453 86.6667 13.5861 88.1605C23.0508 90.875 61.0019 90.875 61.0019 90.875C61.0019 90.875 98.953 90.875 108.418 88.1605C113.639 86.6667 117.752 82.4482 119.147 76.8591C121.683 66.7284 121.683 45.5917 121.683 45.5917C121.683 45.5917 121.683 24.455 119.147 14.3243V14.3243ZM48.5896 64.7822V26.4011L80.3094 45.5922L48.5896 64.7822V64.7822Z" fill="black"/>
</svg>
